# xmcd
#
# Track frame offsets:
#	150
#	23797
#	41960
#	64305
#	82917
#	107600
#	132035
#	149625
#	165687
#	190527
#
# Disc length: 2997 seconds
#
# Revision: 1
# Processed by: cddbd v1.5PL3 Copyright (c) Steve Scherf et al.
# Submitted via: CDex 1.50Beta5
#
DISCID=850bb30a
DTITLE=艾敬 - アイ・ジン - 我的1997
DYEAR=1900
DGENRE=Pop
TTITLE0=我的1997
TTITLE1=的軍装
TTITLE2=我要回家
TTITLE3=長夜不停的電話
TTITLE4=愛人 住在那裡
TTITLE5=流浪的燕子
TTITLE6=離家的時候
TTITLE7=請 稍稍温柔
TTITLE8=那年冬天
TTITLE9=我的1997 (原作版)
EXTD=
EXTT0=
EXTT1=
EXTT2=
EXTT3=
EXTT4=
EXTT5=
EXTT6=
EXTT7=
EXTT8=
EXTT9=
PLAYORDER=
